<svg xmlns="http://www.w3.org/2000/svg" width="1em" height="1em" viewBox="0 0 24 24"><path fill="currentColor" d="M16.278 8.12a7.21 7.21 0 0 0-6.991-4.454C5.27 3.666 2 6.467 2 9.914a5.875 5.875 0 0 0 2.571 4.759L3.707 16.4a.427.427 0 0 0 .59.548l2.189-1.259a8.37 8.37 0 0 0 1.849.416c.853 0 .219-1.094.317-1.608c0-3.217 3.184-5.832 7.09-5.832a.438.438 0 0 0 .536-.547m-9.727.524a1.247 1.247 0 0 1-1.247-1.247A1.247 1.247 0 0 1 7.8 7.42a1.247 1.247 0 0 1-1.25 1.224m5 0a1.247 1.247 0 1 1 .033 0z"/><path fill="currentColor" d="M22 14.498c0-2.757-2.8-5-6.247-5s-6.258 2.188-6.258 5s2.811 5 6.258 5a7.527 7.527 0 0 0 1.914-.24l2.068 1.039a.416.416 0 0 0 .57-.537l-.559-1.411A4.703 4.703 0 0 0 22 14.498m-8.337-.832a.831.831 0 1 1 0-1.663a.843.843 0 0 1 .842.832a.842.842 0 0 1-.842.831m4.168 0a.832.832 0 1 1 0-1.663a.832.832 0 0 1 0 1.663"/></svg>